<?xml version="1.0" encoding="utf-8"?>
<!-- Generator: Adobe Illustrator 22.0.1, SVG Export Plug-In . SVG Version: 6.00 Build 0)  -->
<svg version="1.1" id="Capa_1" xmlns="http://www.w3.org/2000/svg" xmlns:xlink="http://www.w3.org/1999/xlink" x="0px" y="0px"
	 viewBox="0 0 494.6 465.2" style="enable-background:new 0 0 494.6 465.2;" xml:space="preserve">
<style type="text/css">
	.st0{fill:#1F130F;}
</style>
<g>
	<path class="st0" d="M166.3,314.5c9.9,9.9,23.6,15.6,37.7,15.5c14.5-0.1,27.5-6,37-15.5c9.5-9.5,15.4-22.6,15.5-37.1
		c0.1-14-5.6-27.7-15.5-37.6c-9.5-9.5-22.6-15.4-37-15.5c-14-0.1-27.7,5.5-37.7,15.5c-9.9,9.9-15.5,23.6-15.5,37.6
		C150.9,291.9,156.8,305,166.3,314.5z"/>
	<path class="st0" d="M294.1,385.7c8.9,8.9,21.2,13.9,33.9,13.8c12.8-0.1,24.4-5.4,32.8-13.8c8.5-8.5,13.8-20.3,13.8-33.3
		s-5.3-24.8-13.8-33.3c-8.4-8.4-20-13.7-32.8-13.8c-12.6-0.1-24.9,4.9-33.9,13.8c-8.5,8.5-13.8,20.3-13.8,33.3
		S285.6,377.2,294.1,385.7z"/>
	<path class="st0" d="M399,387c4.6,4.6,10.8,7.4,17.8,7.6c7,0.1,13.9-2.6,18.9-7.6c4.7-4.7,7.6-11.1,7.6-18.2
		c0-6.9-2.7-13.5-7.6-18.4c-5-5-11.8-7.7-18.9-7.6c-6.9,0.1-13.2,3-17.8,7.6c-4.8,4.8-7.6,11.5-7.6,18.4
		C391.4,375.9,394.3,382.3,399,387z"/>
	<path class="st0" d="M250.2,457.6c4.6,4.6,10.9,7.5,18,7.6c7,0.1,13.8-2.7,18.7-7.6c4.6-4.6,7.5-11,7.6-18
		c0.1-6.9-2.7-13.7-7.6-18.6c-4.9-4.9-11.7-7.7-18.7-7.6c-7,0.1-13.3,3-18,7.6c-4.9,4.9-7.7,11.7-7.6,18.6
		C242.7,446.6,245.6,453,250.2,457.6z"/>
	<path class="st0" d="M35,365c4.6,4.6,10.9,7.4,17.8,7.6c7,0.1,13.9-2.6,18.8-7.6c4.6-4.6,7.5-11,7.6-18.1
		c0.1-6.9-2.7-13.6-7.6-18.5c-5-5-11.8-7.7-18.8-7.6c-6.9,0.1-13.2,3-17.8,7.6c-4.9,4.9-7.6,11.6-7.6,18.5
		C27.5,354,30.4,360.4,35,365z"/>
	<path class="st0" d="M126.3,435c6.5,6.5,15.4,10.2,24.5,10.1c9.5,0,18.2-3.9,24.4-10.1c6.2-6.2,10-14.7,10.1-24.1
		c0.1-9.3-3.6-18.3-10.1-24.9c-6.3-6.3-14.9-10.1-24.4-10.1c-9.2,0-18.1,3.7-24.5,10.1c-6.6,6.6-10.2,15.6-10.1,24.9
		C116.3,420.3,120.1,428.8,126.3,435z"/>
	<path class="st0" d="M317.9,252.7c9.8,9.8,23.4,15.4,37.3,15.2c14.2-0.1,27-5.9,36.3-15.2c9.4-9.4,15.2-22.3,15.2-36.6
		c0-13.8-5.5-27.2-15.2-36.9c-9.3-9.3-22.1-15.1-36.3-15.2c-13.9-0.1-27.5,5.4-37.3,15.2c-9.7,9.7-15.3,23.2-15.2,36.9
		C302.7,230.4,308.5,243.3,317.9,252.7z"/>
	<path class="st0" d="M221.4,188.1c6.8,6.8,16.1,11,26.3,11.1c10.2,0.1,20.1-3.9,27.3-11.1c6.8-6.8,11.1-16.2,11.1-26.6
		c0-10.1-4-19.9-11.1-27c-7.2-7.2-17.1-11.2-27.3-11.1c-10.3,0.1-19.6,4.3-26.3,11.1c-7.1,7.1-11.2,16.9-11.1,27
		C210.3,171.9,214.6,181.3,221.4,188.1z"/>
	<path class="st0" d="M366.6,119.5c1.8,8.9,7.2,17.6,15.8,23.8c8,5.7,18.1,8.7,27.9,7.3c8-1.1,15.2-5,20-11.5
		c4.9-6.7,6.4-15.2,4.8-23.3c-1.9-9.7-8-18.3-16.1-24c-8.6-6.1-18.6-8.4-27.6-7.1c-8.2,1.1-15.7,5.3-20.5,12.2
		C366.3,103.5,365,111.6,366.6,119.5z"/>
	<path class="st0" d="M260.1,106.6c7.1,7.1,16.9,11.1,27,11c10.2-0.1,19.4-4.3,26-11c7-7,11-16.8,11-26.7
		c-0.1-10.3-4.2-19.5-11-26.3c-6.7-6.7-15.9-10.9-26-11c-10-0.1-19.9,3.9-27,11c-6.7,6.7-10.9,16-11,26.3
		C249.1,89.8,253.1,99.5,260.1,106.6z"/>
	<path class="st0" d="M100.8,141.5c0.3,9,3.4,17.5,9.3,23.9c7.9,8.6,19.5,12.2,31,10.9c13.3-1.5,25.5-8.9,34-19.2
		c8.6-10.4,12.7-22.8,12.3-34.2c-0.4-11.5-5.6-22.5-15.3-29.1c-7.2-4.9-16-6.8-25-5.8c-11.4,1.2-23.1,7.1-32.1,17.1
		C106,115,100.3,128.1,100.8,141.5z"/>
	<path class="st0" d="M51,276.8c7.4,6.3,16.7,9.7,26.5,8.8c9.8-0.9,18.6-6.3,24.6-14c6.5-8.5,10-19.9,8.8-32.1
		c-1.1-11.5-6.4-22.7-15.2-30.3c-7.4-6.4-17.1-9.8-26.9-8.7c-9.8,1.1-18.2,6.3-24.2,14c-7.1,9.2-10,21.2-8.8,32.7
		C37.2,259.3,42.9,269.8,51,276.8z"/>
	<path class="st0" d="M444.7,292.1c4,4.8,9,7.7,14.4,7.9c6.1,0.2,11.5-3.3,15.2-7.9c5.7-6.9,9.4-17.6,9.5-29.7
		c0-10.5-2.6-21.9-9.5-30.2c-3.8-4.5-9.1-8-15.2-7.9c-5.4,0.1-10.4,3-14.4,7.9c-6.9,8.3-9.5,19.7-9.5,30.2
		C435.3,274.5,439,285.2,444.7,292.1z"/>
	<path class="st0" d="M451.6,199.4c5.1,5.9,12.5,10.6,20.4,8.8c4.7-1,9.2-4.7,12.8-8.8c7.2-8.3,10-19.9,9.8-30.8
		c-0.3-11.3-4-21.4-9.8-28c-3.5-4.1-7.8-6.9-12.6-8c-7.9-1.7-15.5,2-20.7,8c-5.7,6.7-9.5,16.7-9.8,28
		C441.6,179.5,444.4,191.1,451.6,199.4z"/>
	<path class="st0" d="M0.3,217.5c0.6,3.7,2.4,7.4,5.8,9.4c3.1,1.8,7,1.8,10.9,0.3c5.6-2.1,11.3-7.1,15.5-14.1
		c3.7-6.3,6.3-14.1,5-21.4c-0.7-4.2-2.6-7.5-5.7-9.3c-3.4-2-7.5-1.7-11-0.3c-7,2.6-12.5,8.7-16,15.1C0.8,204.2-0.7,211.6,0.3,217.5z
		"/>
	<path class="st0" d="M35.6,125.6c1.3,5.8,5,11,10.7,13.2c3.9,1.5,8.2,1.4,12.3,0.1c8.1-2.6,14.4-9.4,17.6-17.1
		c2.4-5.6,2.9-11.5,1.8-16.6c-0.9-4.3-3-8-6.2-10.6c-4.7-3.8-11.1-4.5-16.8-2.6c-4.9,1.6-9.7,5-13.4,9.9
		C36.6,108.5,33.9,117.3,35.6,125.6z"/>
	<path class="st0" d="M98.4,55.2c-0.9,2.6-0.9,5,0.3,6.8c1.4,2.1,4,2.9,6.4,3.1c6.3,0.3,12.7-2.7,17.8-6.2
		c5.9-4.1,10.1-9.1,11.7-13.6c0.8-2.3,1-5-0.4-7c-1.2-1.8-3.4-2.7-6.2-2.8c-4.7-0.3-11,1.7-17,5.7C105.7,44.5,100.5,49.3,98.4,55.2z
		"/>
	<path class="st0" d="M213.5,9c-1.6,1.8-2.9,4.3-2.3,6.8c0.5,2,2.2,3.7,4.6,4.9c5.7,2.7,12.7,2.4,18.7,1.1c7.1-1.5,12.9-4.6,16-8.1
		c1.8-2,2.7-4.2,2.4-6.3c-0.4-2.6-2.5-4.3-4.7-5.4c-4.2-2-10.8-2.6-17.9-1.3C224.4,1.9,217.7,4.3,213.5,9z"/>
	<path class="st0" d="M153.6,42.9c-2.6,4.8-3.4,9.8-1.8,14.3c1.8,5,6.4,8.2,11.3,9.8c9.2,3,19.6,1.3,28.4-2.3
		c9.9-4,17.6-10.6,21.4-17.5c2.5-4.5,3.6-10,1.5-14.9c-1.9-4.4-5.8-7.5-11.1-9.2c-7.5-2.4-17.6-1.9-27.6,1.9
		C167,28.5,158.3,34.4,153.6,42.9z"/>
	<path class="st0" d="M297,21.6c-2.3,1.5-3.6,3.4-3.8,5.6c-0.2,2.6,1.4,4.8,3.3,6.3c3.7,3,10.1,5.2,17.5,5.5c7.4,0.3,14-1.3,17.9-4
		c2-1.4,3.8-3.4,3.8-6c0-2.1-1.2-4.1-3.3-5.9c-3.7-3-10.1-5.2-17.5-5.5C307.5,17.3,300.9,18.9,297,21.6z"/>
	<path class="st0" d="M378.8,47.8c-1-0.3-2.4-0.5-3.2,0.3c-0.6,0.6-0.6,1.7-0.2,3.1c1.1,4.1,5.9,10.9,12.7,17.7
		c0.1,0.1,0.1,0.1,0.2,0.2C395.1,76,402,80.8,406.1,82c1.4,0.4,2.5,0.3,3.1-0.2c0.9-0.8,0.6-2.2,0.3-3.2c-1.1-4.1-6-11-12.9-17.9
		c-0.1-0.1-0.1-0.1-0.2-0.2C389.7,53.7,382.8,48.9,378.8,47.8z"/>
</g>
</svg>
